<svg xmlns="http://www.w3.org/2000/svg" xmlns:xlink="http://www.w3.org/1999/xlink" width="140" height="140" viewBox="0 0 140 140"><defs><style>.a{fill:#fff;}.b{fill:none;}.c{fill:#3b5998;fill-rule:evenodd;}.d{filter:url(#c);}.e{filter:url(#a);}</style><filter id="a" x="0" y="0" width="140" height="140" filterUnits="userSpaceOnUse"><feOffset dy="10" input="SourceAlpha"/><feGaussianBlur stdDeviation="15" result="b"/><feFlood flood-color="#004cff" flood-opacity="0.102"/><feComposite operator="in" in2="b"/><feComposite in="SourceGraphic"/></filter><filter id="c" x="53.321" y="42.001" width="34.418" height="43.95" filterUnits="userSpaceOnUse"><feOffset dy="4" input="SourceAlpha"/><feGaussianBlur stdDeviation="4" result="d"/><feFlood flood-color="#455a64" flood-opacity="0.102"/><feComposite operator="in" in2="d"/><feComposite in="SourceGraphic"/></filter></defs><g transform="translate(45.333 35)"><g class="e" transform="matrix(1, 0, 0, 1, -45.33, -35)"><rect class="a" width="50" height="50" rx="10" transform="translate(45 35)"/></g><g transform="translate(15 15)"><rect class="b" width="20" height="20" transform="translate(-0.333)"/><g class="d" transform="matrix(1, 0, 0, 1, -60.33, -50)"><path class="c" d="M86.761,19.95V10.862h3.1l.443-3.547H86.761V5.1c0-1,.333-1.773,1.773-1.773h1.884V.111C89.975.111,88.867,0,87.648,0A4.278,4.278,0,0,0,83.1,4.655v2.66H80v3.547h3.1V19.95Z" transform="translate(-14.68 50)"/></g></g></g></svg>