<svg xmlns="http://www.w3.org/2000/svg" xmlns:xlink="http://www.w3.org/1999/xlink" width="140" height="140" viewBox="0 0 140 140"><defs><style>.a{fill:#fff;}.b{fill:#fbbb00;}.c{fill:#518ef8;}.d{fill:#28b446;}.e{fill:#f14336;}.f{filter:url(#a);}</style><filter id="a" x="0" y="0" width="140" height="140" filterUnits="userSpaceOnUse"><feOffset dy="10" input="SourceAlpha"/><feGaussianBlur stdDeviation="15" result="b"/><feFlood flood-color="#004cff" flood-opacity="0.102"/><feComposite operator="in" in2="b"/><feComposite in="SourceGraphic"/></filter></defs><g transform="translate(-1083 -189)"><g class="f" transform="matrix(1, 0, 0, 1, 1083, 189)"><rect class="a" width="50" height="50" rx="10" transform="translate(45 35)"/></g><g transform="translate(1143 239)"><path class="b" d="M4.506,145.065,3.8,147.707l-2.587.055a10.184,10.184,0,0,1-.075-9.494h0l2.3.422,1.009,2.289a6.067,6.067,0,0,0,.057,4.085Z" transform="translate(0 -132.946)"/><path class="c" d="M271.393,208.176A10.163,10.163,0,0,1,267.769,218h0l-2.9-.148-.411-2.563a6.059,6.059,0,0,0,2.607-3.094h-5.436v-4.022h9.766Z" transform="translate(-251.571 -200.242)"/><path class="d" d="M45.828,315.216h0a10.17,10.17,0,0,1-15.32-3.11l3.295-2.7a6.047,6.047,0,0,0,8.713,3.1Z" transform="translate(-29.297 -297.455)"/><path class="e" d="M44.143,2.341l-3.294,2.7A6.046,6.046,0,0,0,31.937,8.2L28.625,5.491h0A10.169,10.169,0,0,1,44.143,2.341Z" transform="translate(-27.487)"/></g></g></svg>