<svg xmlns="http://www.w3.org/2000/svg" xmlns:xlink="http://www.w3.org/1999/xlink" width="140" height="140" viewBox="0 0 140 140"><defs><style>.a{fill:#fff;}.b{fill:#0e75a7;}.c{filter:url(#g);}.d{filter:url(#e);}.e{filter:url(#c);}.f{filter:url(#a);}</style><filter id="a" x="0" y="0" width="140" height="140" filterUnits="userSpaceOnUse"><feOffset dy="10" input="SourceAlpha"/><feGaussianBlur stdDeviation="15" result="b"/><feFlood flood-color="#004cff" flood-opacity="0.102"/><feComposite operator="in" in2="b"/><feComposite in="SourceGraphic"/></filter><filter id="c" x="52.074" y="46.312" width="42.926" height="43.688" filterUnits="userSpaceOnUse"><feOffset dy="5" input="SourceAlpha"/><feGaussianBlur stdDeviation="5" result="d"/><feFlood flood-color="#455a64" flood-opacity="0.102"/><feComposite operator="in" in2="d"/><feComposite in="SourceGraphic"/></filter><filter id="e" x="45.33" y="46.648" width="34.147" height="43.352" filterUnits="userSpaceOnUse"><feOffset dy="5" input="SourceAlpha"/><feGaussianBlur stdDeviation="5" result="f"/><feFlood flood-color="#455a64" flood-opacity="0.102"/><feComposite operator="in" in2="f"/><feComposite in="SourceGraphic"/></filter><filter id="g" x="48" y="42" width="28.803" height="28.826" filterUnits="userSpaceOnUse"><feOffset dy="4" input="SourceAlpha"/><feGaussianBlur stdDeviation="4" result="h"/><feFlood flood-color="#455a64" flood-opacity="0.102"/><feComposite operator="in" in2="h"/><feComposite in="SourceGraphic"/></filter></defs><g transform="translate(45 35)"><g class="f" transform="matrix(1, 0, 0, 1, -45, -35)"><rect class="a" width="50" height="50" rx="10" transform="translate(45 35)"/></g><g transform="translate(15 15)"><g class="e" transform="matrix(1, 0, 0, 1, -60, -50)"><path class="b" d="M21.41,21.262h.005V13.926c0-3.588-.773-6.352-4.968-6.352A4.355,4.355,0,0,0,12.525,9.73h-.058V7.909H8.489V21.261h4.142V14.65c0-1.741.33-3.424,2.486-3.424,2.124,0,2.156,1.987,2.156,3.536v6.5Z" transform="translate(58.59 48.74)"/></g><g class="d" transform="matrix(1, 0, 0, 1, -60, -50)"><path class="b" d="M.4,7.977H4.543V21.33H.4Z" transform="translate(59.93 48.67)"/></g><g class="c" transform="matrix(1, 0, 0, 1, -60, -50)"><path class="b" d="M2.4,0A2.413,2.413,0,1,0,4.8,2.4,2.4,2.4,0,0,0,2.4,0Z" transform="translate(60 50)"/></g></g></g></svg>