<svg xmlns="http://www.w3.org/2000/svg" xmlns:xlink="http://www.w3.org/1999/xlink" width="140" height="140" viewBox="0 0 140 140"><defs><style>.a{fill:#fff;}.b{fill:none;}.c{fill:#00acee;fill-rule:evenodd;}.d{filter:url(#c);}.e{filter:url(#a);}</style><filter id="a" x="0" y="0" width="140" height="140" filterUnits="userSpaceOnUse"><feOffset dy="10" input="SourceAlpha"/><feGaussianBlur stdDeviation="15" result="b"/><feFlood flood-color="#004cff" flood-opacity="0.102"/><feComposite operator="in" in2="b"/><feComposite in="SourceGraphic"/></filter><filter id="c" x="48" y="44.499" width="44" height="40.222" filterUnits="userSpaceOnUse"><feOffset dy="4" input="SourceAlpha"/><feGaussianBlur stdDeviation="4" result="d"/><feFlood flood-color="#455a64" flood-opacity="0.2"/><feComposite operator="in" in2="d"/><feComposite in="SourceGraphic"/></filter></defs><g transform="translate(45 35)"><g class="e" transform="matrix(1, 0, 0, 1, -45, -35)"><rect class="a" width="50" height="50" rx="10" transform="translate(45 35)"/></g><g transform="translate(15 15)"><rect class="b" width="20" height="20"/><g class="d" transform="matrix(1, 0, 0, 1, -60, -50)"><path class="c" d="M44.333,18.222A11.563,11.563,0,0,0,56,6.556V6a9.032,9.032,0,0,0,2-2.111,9.224,9.224,0,0,1-2.333.667,4.323,4.323,0,0,0,1.778-2.222,10.192,10.192,0,0,1-2.556,1,3.968,3.968,0,0,0-3-1.333,4.175,4.175,0,0,0-4.111,4.111A2.166,2.166,0,0,0,47.889,7a11.488,11.488,0,0,1-8.445-4.333,4.255,4.255,0,0,0-.556,2.111,4.415,4.415,0,0,0,1.778,3.444,3.746,3.746,0,0,1-1.889-.556h0a4.061,4.061,0,0,0,3.333,4A3.425,3.425,0,0,1,41,11.778a1.891,1.891,0,0,1-.778-.111,4.209,4.209,0,0,0,3.889,2.889A8.389,8.389,0,0,1,39,16.333a3.076,3.076,0,0,1-1-.111,10.488,10.488,0,0,0,6.333,2" transform="translate(22 50.5)"/></g></g></g></svg>